<mxfile host="Electron" modified="2024-07-21T21:32:23.874Z" agent="Mozilla/5.0 (Windows NT 10.0; Win64; x64) AppleWebKit/537.36 (KHTML, like Gecko) draw.io/24.4.13 Chrome/124.0.6367.207 Electron/30.0.6 Safari/537.36" etag="vVQZeIOQK5KPKjmpFfM2" version="24.4.13" type="device">
  <diagram name="Seite-1" id="EDtubWSmrOH1IZ5nmDix">
    <mxGraphModel dx="523" dy="470" grid="1" gridSize="10" guides="1" tooltips="1" connect="1" arrows="1" fold="1" page="1" pageScale="1" pageWidth="827" pageHeight="1169" math="0" shadow="0">
      <root>
        <mxCell id="0" />
        <mxCell id="1" parent="0" />
        <mxCell id="7RMTgzRXwt1WiMBwe38v-6" value="" style="rounded=0;whiteSpace=wrap;html=1;" vertex="1" parent="1">
          <mxGeometry x="340" y="525" width="390" height="235" as="geometry" />
        </mxCell>
        <mxCell id="7RMTgzRXwt1WiMBwe38v-1" value="" style="rounded=0;whiteSpace=wrap;html=1;" vertex="1" parent="1">
          <mxGeometry x="360" y="540" width="350" height="190" as="geometry" />
        </mxCell>
        <mxCell id="7RMTgzRXwt1WiMBwe38v-3" value="&amp;lt;&amp;lt;public&amp;gt;&amp;gt;&lt;div&gt;API&lt;/div&gt;" style="rounded=0;whiteSpace=wrap;html=1;" vertex="1" parent="1">
          <mxGeometry x="370" y="680" width="310" height="35" as="geometry" />
        </mxCell>
        <mxCell id="7RMTgzRXwt1WiMBwe38v-5" value="" style="rounded=0;whiteSpace=wrap;html=1;" vertex="1" parent="1">
          <mxGeometry x="370" y="565" width="310" height="100" as="geometry" />
        </mxCell>
        <mxCell id="7RMTgzRXwt1WiMBwe38v-2" value="&amp;lt;&amp;lt;Private&amp;gt;&amp;gt;&lt;div&gt;Impl&lt;/div&gt;" style="rounded=0;whiteSpace=wrap;html=1;" vertex="1" parent="1">
          <mxGeometry x="380" y="580" width="140" height="70" as="geometry" />
        </mxCell>
        <mxCell id="7RMTgzRXwt1WiMBwe38v-4" value="&amp;lt;&amp;lt;Protected&amp;gt;&amp;gt;&lt;div&gt;Impl&lt;/div&gt;" style="rounded=0;whiteSpace=wrap;html=1;" vertex="1" parent="1">
          <mxGeometry x="530" y="580" width="140" height="70" as="geometry" />
        </mxCell>
        <mxCell id="7RMTgzRXwt1WiMBwe38v-7" value="" style="rounded=0;whiteSpace=wrap;html=1;" vertex="1" parent="1">
          <mxGeometry x="340" y="410" width="390" height="95" as="geometry" />
        </mxCell>
        <mxCell id="7RMTgzRXwt1WiMBwe38v-8" value="" style="rounded=0;whiteSpace=wrap;html=1;" vertex="1" parent="1">
          <mxGeometry x="490" y="430" width="90" height="52.5" as="geometry" />
        </mxCell>
        <mxCell id="7RMTgzRXwt1WiMBwe38v-11" value="Subsystem A" style="text;html=1;align=center;verticalAlign=middle;whiteSpace=wrap;rounded=0;" vertex="1" parent="1">
          <mxGeometry x="495" y="535" width="85" height="30" as="geometry" />
        </mxCell>
        <mxCell id="7RMTgzRXwt1WiMBwe38v-12" value="&lt;div&gt;&amp;lt;&amp;lt;Extension&amp;gt;&amp;gt;&lt;/div&gt;&lt;div&gt;Subsystem A&lt;/div&gt;&lt;div&gt;&lt;br&gt;&lt;/div&gt;" style="text;html=1;align=center;verticalAlign=middle;whiteSpace=wrap;rounded=0;" vertex="1" parent="1">
          <mxGeometry x="497.5" y="441.25" width="75" height="30" as="geometry" />
        </mxCell>
        <mxCell id="7RMTgzRXwt1WiMBwe38v-13" value="" style="rounded=0;whiteSpace=wrap;html=1;" vertex="1" parent="1">
          <mxGeometry x="380" y="430" width="90" height="52.5" as="geometry" />
        </mxCell>
        <mxCell id="7RMTgzRXwt1WiMBwe38v-14" value="Subsystem B" style="text;html=1;align=center;verticalAlign=middle;whiteSpace=wrap;rounded=0;" vertex="1" parent="1">
          <mxGeometry x="387.5" y="441.25" width="75" height="30" as="geometry" />
        </mxCell>
        <mxCell id="7RMTgzRXwt1WiMBwe38v-15" value="" style="endArrow=classic;html=1;rounded=0;edgeStyle=orthogonalEdgeStyle;fillColor=#d5e8d4;strokeColor=#82b366;" edge="1" parent="1" target="7RMTgzRXwt1WiMBwe38v-3">
          <mxGeometry width="50" height="50" relative="1" as="geometry">
            <mxPoint x="423.2541213273496" y="482.5" as="sourcePoint" />
            <mxPoint x="389.07000000000016" y="692.81" as="targetPoint" />
            <Array as="points">
              <mxPoint x="423" y="490" />
              <mxPoint x="350" y="490" />
              <mxPoint x="350" y="690" />
            </Array>
          </mxGeometry>
        </mxCell>
        <mxCell id="7RMTgzRXwt1WiMBwe38v-16" value="" style="endArrow=classic;html=1;rounded=0;exitX=0.777;exitY=1.001;exitDx=0;exitDy=0;exitPerimeter=0;fillColor=#f8cecc;strokeColor=#b85450;" edge="1" parent="1" source="7RMTgzRXwt1WiMBwe38v-13">
          <mxGeometry width="50" height="50" relative="1" as="geometry">
            <mxPoint x="430" y="530" as="sourcePoint" />
            <mxPoint x="450" y="580" as="targetPoint" />
          </mxGeometry>
        </mxCell>
        <mxCell id="7RMTgzRXwt1WiMBwe38v-18" value="" style="verticalLabelPosition=bottom;verticalAlign=top;html=1;shape=mxgraph.basic.x;fillColor=#f8cecc;strokeColor=#b85450;" vertex="1" parent="1">
          <mxGeometry x="440" y="525" width="20" height="15" as="geometry" />
        </mxCell>
        <mxCell id="7RMTgzRXwt1WiMBwe38v-20" value="" style="endArrow=classic;html=1;rounded=0;exitX=0.5;exitY=1;exitDx=0;exitDy=0;entryX=0.5;entryY=0;entryDx=0;entryDy=0;fillColor=#d5e8d4;strokeColor=#82b366;" edge="1" parent="1" source="7RMTgzRXwt1WiMBwe38v-8" target="7RMTgzRXwt1WiMBwe38v-4">
          <mxGeometry width="50" height="50" relative="1" as="geometry">
            <mxPoint x="360" y="570" as="sourcePoint" />
            <mxPoint x="410" y="520" as="targetPoint" />
          </mxGeometry>
        </mxCell>
        <mxCell id="7RMTgzRXwt1WiMBwe38v-22" value="" style="endArrow=classic;html=1;rounded=0;exitX=0.341;exitY=1.01;exitDx=0;exitDy=0;exitPerimeter=0;entryX=0.795;entryY=-0.019;entryDx=0;entryDy=0;entryPerimeter=0;fillColor=#f8cecc;strokeColor=#b85450;" edge="1" parent="1" source="7RMTgzRXwt1WiMBwe38v-8" target="7RMTgzRXwt1WiMBwe38v-2">
          <mxGeometry width="50" height="50" relative="1" as="geometry">
            <mxPoint x="360" y="570" as="sourcePoint" />
            <mxPoint x="410" y="520" as="targetPoint" />
          </mxGeometry>
        </mxCell>
        <mxCell id="7RMTgzRXwt1WiMBwe38v-23" value="" style="verticalLabelPosition=bottom;verticalAlign=top;html=1;shape=mxgraph.basic.x;fillColor=#f8cecc;strokeColor=#b85450;" vertex="1" parent="1">
          <mxGeometry x="490" y="525" width="20" height="15" as="geometry" />
        </mxCell>
        <mxCell id="7RMTgzRXwt1WiMBwe38v-25" value="" style="endArrow=classic;html=1;rounded=0;exitX=0.75;exitY=1;exitDx=0;exitDy=0;entryX=0.997;entryY=0.427;entryDx=0;entryDy=0;edgeStyle=orthogonalEdgeStyle;fillColor=#d5e8d4;strokeColor=#82b366;entryPerimeter=0;" edge="1" parent="1" source="7RMTgzRXwt1WiMBwe38v-8" target="7RMTgzRXwt1WiMBwe38v-3">
          <mxGeometry width="50" height="50" relative="1" as="geometry">
            <mxPoint x="360" y="610" as="sourcePoint" />
            <mxPoint x="410" y="560" as="targetPoint" />
            <Array as="points">
              <mxPoint x="558" y="490" />
              <mxPoint x="690" y="490" />
              <mxPoint x="690" y="695" />
            </Array>
          </mxGeometry>
        </mxCell>
      </root>
    </mxGraphModel>
  </diagram>
</mxfile>
